<svg xmlns="http://www.w3.org/2000/svg" xmlns:xlink="http://www.w3.org/1999/xlink" width="2048" height="1024" viewBox="0 0 2048 1024"><g opacity=".35"><defs><path id="a" d="M.157 75.977h2041.751v929.154H.157z"/></defs><clipPath id="b"><use xlink:href="#a" overflow="visible"/></clipPath><path clip-path="url(#b)" fill="#BCE2F6" d="M377.679 615.211c-31.428-13.834-274.562-120.237-320.111-122.878L.15 387.584l41.211-30.735 196.097 15.424 122.801 34.126 17.42 208.812z"/><path clip-path="url(#b)" fill="#D2ECF8" d="M429.873 328.139L41.354 356.845l243.524-30.736z"/><path clip-path="url(#b)" fill="#769ECE" d="M503.45 446.106l-49.069 24.284-94.122-63.995z"/><path clip-path="url(#b)" fill="#2DA1C6" d="M687.786 694.941L551.26 677.836l-48.687-19.219-119.891-41.922s-2.803-.494-5.002-1.484l76.702-144.829 112.964 84.407 120.44 140.152z"/><path clip-path="url(#b)" fill="#DBDBEE" d="M687.786 331.706l-32.521 164.011-127.307-17.953-24.508-31.658-73.57-117.967z"/><path clip-path="url(#b)" fill="#C0BFDF" d="M655.258 495.709l-89.562 59.08-37.744-77.032z"/><path clip-path="url(#b)" fill="#97ABD5" d="M687.786 694.941l230.22 15.379 36.215 33.502 127.36 164.864 11.259 37.75-33.735 7.005-228.516-132.722L701.968 714.49z"/><path clip-path="url(#b)" fill="#0A64A2" d="M815.589 999.549l-36.316 5.582-81.047-47.518-88.678-118.756-108.632-180.24 51.537 19.67 135.333 16.654 11.7 92.213 48.681 50.278z"/><path clip-path="url(#b)" fill="#BEBEDF" d="M1081.856 318.487L738.283 504.201l-50.497-172.495 361.321-54.524z"/><path clip-path="url(#b)" fill="#CCCBE6" d="M1178.996 218.532v47.461l-129.889 11.185z"/><path clip-path="url(#b)" fill="#5470A8" d="M1377.567 226.893l-109.94 205.072-66.269 37.375-119.508-150.857 97.146-52.49 92.419-12.544z"/><path clip-path="url(#b)" fill="#255DAB" d="M1201.358 469.34l-57.907 194.197-4.405 2.086L991.69 710.32h-73.678l-25.057-29.949-131.102-77.014-33.024-55.949-73.571-51.699 83.019 8.484 171.649 6.579z"/><path clip-path="url(#b)" fill="#2F6DB6" d="M728.829 547.408l181.097-36.636-171.649-6.579-83.019-8.484z"/><path clip-path="url(#b)" fill="#054B94" d="M1414.493 349.039l-70.5 218.984-200.549 95.5 124.176-231.558z"/><path clip-path="url(#b)" fill="#004790" d="M1875.811 75.977l-92.366 30.12-159.559 51.947-117.912 84.464-91.488 106.531-36.919-122.15 139.839-79.599 97.414-37.75z"/><path clip-path="url(#b)" fill="#11619E" d="M1788.388 162.654l-44.947 60.056-62.137 34.363z"/><path clip-path="url(#b)" fill="#023985" d="M2041.908 102.533l-213.524 78.257-39.99-18.14-.443-4.854 87.853-81.819h106.159z"/><path clip-path="url(#b)" fill="#C0BFDF" d="M503.45 446.106l-143.191-39.711-122.801-34.123-196.104-15.423 388.519-28.71z"/><path clip-path="url(#b)" fill="#C3E3F6" d="M454.381 470.382l-76.702 144.829-17.42-208.816z"/><path clip-path="url(#b)" fill="#1C91C8" d="M565.702 554.789l-111.327-84.407 73.577 7.375z"/><path clip-path="url(#b)" fill="#769ECE" d="M527.952 477.764l-73.571-7.374 49.063-24.284z"/><path clip-path="url(#b)" fill="#AEB3D8" d="M738.283 504.193l-83.018-8.476 32.521-164.011z"/><path clip-path="url(#b)" fill="#8295C7" d="M918.006 710.32l-230.214-15.379-122.09-140.152 89.556-59.08 73.571 51.699 33.024 55.934 131.102 77.029z"/><path clip-path="url(#b)" fill="#AFB6DC" d="M1178.996 265.989l-97.146 52.498-32.743-41.313z"/><path clip-path="url(#b)" fill="#7387B4" d="M1201.358 469.34l-291.432 41.432-171.649-6.579 343.573-185.702z"/><path clip-path="url(#b)" fill="#03559D" d="M1267.62 431.965l-124.176 231.558 57.914-194.183z"/><path clip-path="url(#b)" fill="#255DAB" d="M1414.493 349.039l-146.873 82.926 109.941-205.069z"/><path clip-path="url(#b)" fill="#06559D" d="M1788.388 162.654l-110.659 94.617-48.465 26.805-.55.308v-.184l-4.942-41.737 3.735-18.14-27.472 22.319-89.944 166.283-166.098 155.083 70.493-218.966 87.913-106.335 117.914-84.472 165.62-52.948z"/><path clip-path="url(#b)" fill="#044A92" d="M1510.091 412.925l-95.598-63.886-70.507 218.984z"/><path clip-path="url(#b)" fill="#11619E" d="M1788.388 162.654l-107.091 94.404-52.663 27.438-4.862-42.033 3.735-18.14z"/><path clip-path="url(#b)" fill="#01458B" d="M1875.811 75.977l-87.423 86.677-4.943-56.557z"/><path clip-path="url(#b)" fill="#7C3D7A" d="M1631.067 224.105l28.625-77.704"/></g><g opacity=".5"><defs><path id="c" d="M.472 30.897h2047.685v932.237H.472z"/></defs><clipPath id="d"><use xlink:href="#c" overflow="visible"/></clipPath><path clip-path="url(#d)" fill="none" stroke="#FFF" stroke-width="1.2" d="M69.966 450.322c-4.043-.848-7.47-1.38-10.186-1.538l-5.384-9.82"/><path clip-path="url(#d)" fill="none" stroke="#FFF" stroke-width="1.2" stroke-dasharray="10,10" d="M45.056 421.935L12.381 362.34"/><path clip-path="url(#d)" fill="none" stroke="#FFF" stroke-width="1.2" d="M7.721 353.821l-5.385-9.823 8.57-6.392"/><path clip-path="url(#d)" fill="none" stroke="#FFF" stroke-width="1.2" stroke-dasharray="10,10" d="M28.152 324.744l15.395-11.478 243.51-30.743 402.922 5.593 361.334-54.491 110.718-50.022"/><path clip-path="url(#d)" fill="none" stroke="#FFF" stroke-width="1.2" d="M1171.641 179.259l9.554-4.317v11.523M1181.195 210.925v11.523l10.219-1.392"/><path clip-path="url(#d)" fill="none" stroke="#FFF" stroke-width="1.2" stroke-dasharray="10,10" d="M1211.604 218.311l61.998-8.436 106.151-26.55 139.859-79.64 97.408-37.716 260.997-33.533h106.152l40.908 18.113"/><path clip-path="url(#d)" fill="none" stroke="#FFF" stroke-width="1.2" d="M2034.532 54.739l9.575 4.242-9.79 3.586"/><path clip-path="url(#d)" fill="none" stroke="#FFF" stroke-width="1.2" stroke-dasharray="10,10" d="M2016.247 69.188l-185.684 68.034-21.611-9.82"/><path clip-path="url(#d)" fill="none" stroke="#FFF" stroke-width="1.2" d="M1800.142 123.396l-9.542-4.34-6.612 8.841"/><path clip-path="url(#d)" fill="none" stroke="#FFF" stroke-width="1.2" stroke-dasharray="10,10" d="M1771.624 144.424l-25.977 34.715-93.27 51.591"/><path clip-path="url(#d)" fill="none" stroke="#FFF" stroke-width="1.2" d="M1643.733 235.505l-9.232 5.109-1.361-11.426"/><path clip-path="url(#d)" fill="none" stroke="#FFF" stroke-width="1.2" stroke-dasharray="10,10" d="M1631.65 216.671l-2.145-17.974.168-.784"/><path clip-path="url(#d)" fill="none" stroke="#FFF" stroke-width="1.2" d="M1630.94 191.761l2.313-11.23-8.327 6.782"/><path clip-path="url(#d)" fill="none" stroke="#FFF" stroke-width="1.2" stroke-dasharray="10,10" d="M1608.041 201.048l-2.259 1.842-89.912 166.261-166.097 155.091-208.547 97.795-147.357 44.711h-52.938"/><path clip-path="url(#d)" fill="none" stroke="#FFF" stroke-width="1.2" d="M930.498 666.748h-10.3l7.933 7.338"/><path clip-path="url(#d)" fill="none" stroke="#FFF" stroke-width="1.2" stroke-dasharray="10,10" d="M943.345 688.174l13.069 12.094 127.373 164.877 4.861 16.308"/><path clip-path="url(#d)" fill="none" stroke="#FFF" stroke-width="1.2" d="M1091.767 891.926l3.258 10.937-10.131 2.102"/><path clip-path="url(#d)" fill="none" stroke="#FFF" stroke-width="1.2" stroke-dasharray="10,10" d="M1065.509 908.971l-4.204.869-228.524-132.723-128.628-106.183-1.482-2.039"/><path clip-path="url(#d)" fill="none" stroke="#FFF" stroke-width="1.2" d="M696.462 660.326l-6.483-8.957 1.448 11.418"/><path clip-path="url(#d)" fill="none" stroke="#FFF" stroke-width="1.2" stroke-dasharray="10,10" d="M694.122 684.107l7.537 59.477 48.701 50.307 59.027 141.845"/><path clip-path="url(#d)" fill="none" stroke="#FFF" stroke-width="1.2" d="M813.45 945.504l4.345 10.443-10.206 1.576"/><path clip-path="url(#d)" fill="none" stroke="#FFF" stroke-width="1.2" stroke-dasharray="10,10" d="M787.594 960.598l-6.149.945-81.033-47.502-88.665-118.77-108.645-180.226-119.884-41.92s-224.125-99.149-303.401-120.41"/><path clip-path="url(#d)" fill="none" stroke="#FFF" stroke-width="1.2" d="M43.541 313.262l10.272.807"/><path clip-path="url(#d)" fill="none" stroke="#FFF" stroke-width="1.2" stroke-dasharray="10,10" d="M75.196 315.753l164.468 12.944 245.568 68.2"/><path clip-path="url(#d)" fill="none" stroke="#FFF" stroke-width="1.2" d="M495.632 399.786l9.998 2.772-5.894-9.449"/><path clip-path="url(#d)" fill="none" stroke="#FFF" stroke-width="1.2" stroke-dasharray="10,10" d="M487.378 373.285l-43.25-69.385"/><path clip-path="url(#d)" fill="none" stroke="#FFF" stroke-width="1.2" d="M437.953 293.99l-5.894-9.452M379.892 571.67l5.25-9.918"/><path clip-path="url(#d)" fill="none" stroke="#FFF" stroke-width="1.2" stroke-dasharray="10,10" d="M394.597 543.896l52.012-98.225"/><path clip-path="url(#d)" fill="none" stroke="#FFF" stroke-width="1.2" d="M451.337 436.744l5.25-9.918 8.522 6.467"/><path clip-path="url(#d)" fill="none" stroke="#FFF" stroke-width="1.2" stroke-dasharray="10,10" d="M483.958 447.592l65.967 50.038"/><path clip-path="url(#d)" fill="none" stroke="#FFF" stroke-width="1.2" d="M559.346 504.778l8.522 6.467-4.942-10.112"/><path clip-path="url(#d)" fill="none" stroke="#FFF" stroke-width="1.2" stroke-dasharray="10,10" d="M553.76 482.423l-23.616-48.207-11.526-14.892"/><path clip-path="url(#d)" fill="none" stroke="#FFF" stroke-width="1.2" d="M512.369 411.268l-6.739-8.71-9.422 4.662"/><path clip-path="url(#d)" fill="none" stroke="#FFF" stroke-width="1.2" stroke-dasharray="10,10" d="M486.137 412.205l-15.093 7.472"/><path clip-path="url(#d)" fill="none" stroke="#FFF" stroke-width="1.2" d="M466.001 422.167l-9.414 4.667-8.804-5.987"/><path clip-path="url(#d)" fill="none" stroke="#FFF" stroke-width="1.2" stroke-dasharray="10,10" d="M432.475 410.427l-53.582-36.441"/><path clip-path="url(#d)" fill="none" stroke="#FFF" stroke-width="1.2" d="M371.235 368.776l-8.804-5.983"/><path clip-path="url(#d)" fill="#FFF" d="M466.726 429.392l-10.26-1.036.242-3.053 10.259 1.028zM627.063 449.415l-20.022-2.821.349-3.046 20.022 2.821-.349 3.046zm-40.038-5.634l-20.016-2.829.349-3.038 20.016 2.813-.349 3.054zm-40.037-5.649l-17.192-2.311-2.541-3.443 3.01.308 17.072 2.408-.349 3.038zm-40.071-4.704l-20.103-2.025.242-3.053 20.102 2.018-.241 3.06zM658.537 453.848l-11.459-1.613.349-3.046 8.971 1.269 1.965-9.888 2.682.667zM665.048 421.012l-2.689-.667 4.01-20.218 2.689.667-4.01 20.218zm8.013-40.435l-2.689-.668 4.01-20.221 2.689.667-4.01 20.222zm8.02-40.439l-2.689-.667 4.003-20.218 2.689.667-4.003 20.218zM689.093 299.699l-2.689-.668 3.32-16.733 4.76 16.287-2.615.953-1.636-5.608zM729.654 428.612l-6.296-21.52 2.615-.953 6.296 21.52-2.615.953zm-12.593-43.02l-6.296-21.519 2.615-.949 6.296 21.516-2.615.952zm-12.592-43.027l-6.296-21.508 2.615-.953 6.296 21.508-2.615.953zM742.427 462.333l-12.344-1.253.248-3.06 8.18.832-2.561-8.725 2.615-.96zM709.256 458.964l-20.826-2.115.255-3.061 20.826 2.123z"/><path clip-path="url(#d)" fill="#FFF" d="M667.603 454.726l-10.259-1.043.255-3.06 10.258 1.05z"/><path clip-path="url(#d)" fill="none" stroke="#FFF" stroke-width="1.2" d="M503.102 615.045l9.749 3.721"/><path clip-path="url(#d)" fill="none" stroke="#FFF" stroke-width="1.2" stroke-dasharray="10,10" d="M530.728 625.578l23.944 9.123 115.68 14.252"/><path clip-path="url(#d)" fill="none" stroke="#FFF" stroke-width="1.2" d="M679.739 650.109l10.24 1.26-7.188-8.252"/><path clip-path="url(#d)" fill="none" stroke="#FFF" stroke-width="1.2" stroke-dasharray="10,10" d="M667.402 625.457l-84.641-97.135"/><path clip-path="url(#d)" fill="none" stroke="#FFF" stroke-width="1.2" d="M575.063 519.486l-7.188-8.241 8.871-5.858"/><path clip-path="url(#d)" fill="none" stroke="#FFF" stroke-width="1.2" stroke-dasharray="10,10" d="M591.116 495.911l50.296-33.165"/><path clip-path="url(#d)" fill="none" stroke="#FFF" stroke-width="1.2" d="M648.6 458.004l8.871-5.851 8.717 6.129"/><path clip-path="url(#d)" fill="none" stroke="#FFF" stroke-width="1.2" stroke-dasharray="10,10" d="M683.743 470.623l47.285 33.233 33.017 55.929 131.096 77.031 10.929 13.053"/><path clip-path="url(#d)" fill="none" stroke="#FFF" stroke-width="1.2" d="M913.158 658.332l7.033 8.416M740.463 460.592l10.292.406"/><path clip-path="url(#d)" fill="none" stroke="#FFF" stroke-width="1.2" stroke-dasharray="10,10" d="M771.931 461.808l140.181 5.416 270.7-38.5"/><path clip-path="url(#d)" fill="none" stroke="#FFF" stroke-width="1.2" d="M1193.318 427.224l10.219-1.448-6.832-8.627"/><path clip-path="url(#d)" fill="none" stroke="#FFF" stroke-width="1.2" stroke-dasharray="10,10" d="M1184.112 401.252l-119.663-151.051"/><path clip-path="url(#d)" fill="none" stroke="#FFF" stroke-width="1.2" d="M1058.146 242.249l-6.826-8.627 10.266-.885"/><path clip-path="url(#d)" fill="none" stroke="#FFF" stroke-width="1.2" stroke-dasharray="10,10" d="M1083.452 230.857l76.534-6.583"/><path clip-path="url(#d)" fill="none" stroke="#FFF" stroke-width="1.2" d="M1170.923 223.333l10.272-.885M1145.631 619.967l3.259-10.924"/><path clip-path="url(#d)" fill="none" stroke="#FFF" stroke-width="1.2" stroke-dasharray="10,10" d="M1155.567 586.627l47.97-160.851 194.528-109.783"/><path clip-path="url(#d)" fill="none" stroke="#FFF" stroke-width="1.2" d="M1407.485 310.674l9.194-5.195-3.292-10.908"/><path clip-path="url(#d)" fill="none" stroke="#FFF" stroke-width="1.2" stroke-dasharray="10,10" d="M1407.318 274.503l-21.235-70.229"/><path clip-path="url(#d)" fill="none" stroke="#FFF" stroke-width="1.2" d="M1383.052 194.241l-3.306-10.916M1349.78 524.228l3.332-10.893"/><path clip-path="url(#d)" fill="none" stroke="#FFF" stroke-width="1.2" stroke-dasharray="10,10" d="M1359.777 491.538l56.909-186.055 91.48-106.572 117.893-84.412 232.184-75.627"/><path clip-path="url(#d)" fill="none" stroke="#FFF" stroke-width="1.2" d="M1868.127 35.657l9.89-3.221M1790.6 119.06l-.999-11.47M1786.65 73.988l-.999-11.47M1633.253 180.535l3.93-10.657"/><path clip-path="url(#d)" fill="none" stroke="#FFF" stroke-width="1.2" stroke-dasharray="10,10" d="M1644.109 151.082l10.387-28.2"/><path clip-path="url(#d)" fill="none" stroke="#FFF" stroke-width="1.2" d="M1657.956 113.482l3.929-10.652"/></g><path fill="#FFF" d="M1802.724 119.06c0 7.487-5.425 13.563-12.124 13.563-6.698 0-12.116-6.077-12.116-13.563 0-7.491 5.418-13.567 12.116-13.567 6.699 0 12.124 6.076 12.124 13.567M1671.815 105.497c0 7.487-5.425 13.563-12.13 13.563-6.691 0-12.116-6.077-12.116-13.563 0-7.491 5.425-13.567 12.116-13.567 6.706-.001 12.13 6.076 12.13 13.567M1647.569 240.16c0 7.491-5.432 13.567-12.13 13.567-6.692 0-12.116-6.077-12.116-13.567s5.424-13.567 12.116-13.567c6.699 0 12.13 6.076 12.13 13.567M1361.903 524.228c0 7.501-5.425 13.577-12.13 13.577-6.692 0-12.116-6.076-12.116-13.577 0-7.487 5.424-13.56 12.116-13.56 6.706 0 12.13 6.072 12.13 13.56M1426.455 304.86c0 7.49-5.425 13.567-12.13 13.567-6.691 0-12.116-6.077-12.116-13.567 0-7.491 5.425-13.567 12.116-13.567 6.705 0 12.13 6.077 12.13 13.567M1391.024 183.325c0 7.491-5.425 13.567-12.13 13.567-6.692 0-12.116-6.077-12.116-13.567 0-7.487 5.424-13.563 12.116-13.563 6.706 0 12.13 6.076 12.13 13.563M1193.486 220.25c0 7.491-5.425 13.567-12.123 13.567-6.692 0-12.116-6.077-12.116-13.567 0-7.487 5.424-13.563 12.116-13.563 6.699-.001 12.123 6.076 12.123 13.563M1213.247 427.164c0 7.494-5.425 13.571-12.13 13.571-6.692 0-12.117-6.077-12.117-13.571 0-7.487 5.425-13.563 12.117-13.563 6.705 0 12.13 6.076 12.13 13.563M1155.487 619.967c0 7.486-5.425 13.563-12.123 13.563-6.699 0-12.123-6.076-12.123-13.563s5.424-13.564 12.123-13.564c6.699-.001 12.123 6.077 12.123 13.564M932.315 666.734c0 7.5-5.418 13.578-12.124 13.578-6.692 0-12.116-6.078-12.116-13.578 0-7.488 5.424-13.564 12.116-13.564 6.706 0 12.124 6.076 12.124 13.564M1095.911 865.145c0 7.486-5.425 13.563-12.124 13.563-6.698 0-12.123-6.076-12.123-13.563 0-7.502 5.425-13.578 12.123-13.578 6.699-.001 12.124 6.076 12.124 13.578M764.709 798.887c0 7.488-5.424 13.564-12.123 13.564s-12.123-6.076-12.123-13.564c0-7.486 5.424-13.563 12.123-13.563s12.123 6.076 12.123 13.563M699.674 653.186c0 7.486-5.424 13.563-12.123 13.563s-12.124-6.076-12.124-13.563c0-7.502 5.425-13.578 12.124-13.578s12.123 6.076 12.123 13.578M579.998 511.995c0 7.491-5.424 13.567-12.13 13.567-6.692 0-12.116-6.076-12.116-13.567 0-7.486 5.424-13.563 12.116-13.563 6.706.001 12.13 6.077 12.13 13.563M668.81 452.153c0 7.487-5.424 13.563-12.123 13.563-6.692 0-12.116-6.077-12.116-13.563s5.424-13.563 12.116-13.563c6.698-.001 12.123 6.076 12.123 13.563M701.331 288.112c0 7.49-5.425 13.567-12.123 13.567-6.699 0-12.124-6.077-12.124-13.567 0-7.487 5.425-13.563 12.124-13.563 6.698 0 12.123 6.076 12.123 13.563M444.584 284.538c0 7.487-5.424 13.563-12.123 13.563s-12.123-6.076-12.123-13.563c0-7.491 5.424-13.567 12.123-13.567s12.123 6.076 12.123 13.567M517.753 402.558c0 7.494-5.425 13.571-12.13 13.571-6.692 0-12.117-6.077-12.117-13.571 0-7.487 5.425-13.563 12.117-13.563 6.705-.001 12.13 6.076 12.13 13.563M468.71 427.164c0 7.494-5.432 13.571-12.13 13.571-6.692 0-12.117-6.077-12.117-13.571 0-7.487 5.425-13.563 12.117-13.563 6.699 0 12.13 6.076 12.13 13.563M393.336 569.449c0 7.486-5.425 13.563-12.13 13.563-6.692 0-12.116-6.076-12.116-13.563 0-7.488 5.424-13.564 12.116-13.564 6.705 0 12.13 6.076 12.13 13.564M55.664 311.661c0 7.491-5.418 13.567-12.123 13.567-6.692 0-12.117-6.076-12.117-13.567 0-7.487 5.425-13.563 12.117-13.563 6.705-.001 12.123 6.076 12.123 13.563M1069.243 231.094c0 7.491-5.424 13.567-12.129 13.567-6.692 0-12.117-6.077-12.117-13.567s5.425-13.567 12.117-13.567c6.705-.001 12.129 6.076 12.129 13.567M1890.14 32.436c0 7.49-5.424 13.567-12.123 13.567-6.698 0-12.123-6.077-12.123-13.567 0-7.491 5.425-13.567 12.123-13.567 6.699-.001 12.123 6.076 12.123 13.567"/></svg>